# xmcd CD database file
#
# Track frame offsets:
#	150
#	18972
#	40775
#	60590
#	79350
#	101167
#	132182
#
# Disc length: 4440 seconds
#
# Revision: 0
# Processed by: cddbd v1.5PL3 Copyright (c) Steve Scherf et al.
# Submitted via: CDex 1.50
#
DISCID=54115607
DTITLE=BREATH - アイ・ラブ・ユー
DYEAR=2003
DGENRE=JPop
TTITLE0=アイ・ラブ・ユー
TTITLE1=Bridge
TTITLE2=Tenderness
TTITLE3=アイ・ラブ・ユー (Instrumental)
TTITLE4=Bridge (Instrumental)
TTITLE5=Tenderness (Instrumenatl)
TTITLE6=data
EXTD=YEAR: 2003
EXTT0=
EXTT1=
EXTT2=
EXTT3=
EXTT4=
EXTT5=
EXTT6=
PLAYORDER=
